<svg width="20" height="21" viewBox="0 0 20 21" fill="none" xmlns="http://www.w3.org/2000/svg">
<path d="M12.5001 19.4582H7.50008C2.97508 19.4582 1.04175 17.5248 1.04175 12.9998V7.99984C1.04175 3.47484 2.97508 1.5415 7.50008 1.5415H12.5001C17.0251 1.5415 18.9584 3.47484 18.9584 7.99984V12.9998C18.9584 17.5248 17.0251 19.4582 12.5001 19.4582ZM7.50008 2.7915C3.65841 2.7915 2.29175 4.15817 2.29175 7.99984V12.9998C2.29175 16.8415 3.65841 18.2082 7.50008 18.2082H12.5001C16.3417 18.2082 17.7084 16.8415 17.7084 12.9998V7.99984C17.7084 4.15817 16.3417 2.7915 12.5001 2.7915H7.50008Z" fill="#9C9CA4"/>
<path d="M13.6667 16.5415H10.5C8.9 16.5415 8.125 15.7665 8.125 14.1665V12.6665C8.125 11.0665 8.9 10.2915 10.5 10.2915H13.6667C15.2667 10.2915 16.0417 11.0665 16.0417 12.6665V14.1665C16.0417 15.7665 15.2667 16.5415 13.6667 16.5415ZM10.5 11.5415C9.6 11.5415 9.375 11.7665 9.375 12.6665V14.1665C9.375 15.0665 9.6 15.2915 10.5 15.2915H13.6667C14.5667 15.2915 14.7917 15.0665 14.7917 14.1665V12.6665C14.7917 11.7665 14.5667 11.5415 13.6667 11.5415H10.5Z" fill="#9C9CA4"/>
</svg>
