<svg width="20" height="21" viewBox="0 0 20 21" fill="none" xmlns="http://www.w3.org/2000/svg">
<path d="M11.5667 17.6583C10.9084 17.6583 10.1834 17.425 9.45836 16.9667L7.02502 15.4417C6.85836 15.3417 6.66669 15.2833 6.47502 15.2833H5.27502C3.25836 15.2833 2.15002 14.175 2.15002 12.1583V8.82501C2.15002 6.80834 3.25836 5.70001 5.27502 5.70001H6.46669C6.65836 5.70001 6.85002 5.64167 7.01669 5.54167L9.45002 4.01667C10.6667 3.25834 11.85 3.11667 12.7834 3.63334C13.7167 4.15001 14.225 5.22501 14.225 6.66667V14.3083C14.225 15.7417 13.7084 16.825 12.7834 17.3417C12.4167 17.5583 12.0084 17.6583 11.5667 17.6583ZM5.27502 6.95834C3.95836 6.95834 3.40002 7.51667 3.40002 8.83334V12.1667C3.40002 13.4833 3.95836 14.0417 5.27502 14.0417H6.46669C6.90002 14.0417 7.31669 14.1583 7.68336 14.3917L10.1167 15.9167C10.925 16.4167 11.675 16.55 12.1834 16.2667C12.6917 15.9833 12.9834 15.275 12.9834 14.3333V6.67501C12.9834 5.72501 12.6917 5.01667 12.1834 4.74167C11.675 4.45834 10.925 4.58334 10.1167 5.09167L7.68336 6.60834C7.31669 6.84167 6.90002 6.95834 6.46669 6.95834H5.27502Z" fill="#9C9CA4"/>
<path d="M16.1084 14.4584C15.975 14.4584 15.85 14.4167 15.7334 14.3334C15.4584 14.1251 15.4 13.7334 15.6084 13.4584C16.9167 11.7167 16.9167 9.2834 15.6084 7.54173C15.4 7.26673 15.4584 6.87506 15.7334 6.66673C16.0084 6.4584 16.4 6.51673 16.6084 6.79173C18.25 8.97506 18.25 12.0251 16.6084 14.2084C16.4917 14.3751 16.3 14.4584 16.1084 14.4584Z" fill="#9C9CA4"/>
</svg>
