<svg width="20" height="21" viewBox="0 0 20 21" fill="none" xmlns="http://www.w3.org/2000/svg">
<path d="M12.5001 19.4582H7.50008C2.97508 19.4582 1.04175 17.5248 1.04175 12.9998V7.99984C1.04175 3.47484 2.97508 1.5415 7.50008 1.5415H12.5001C17.0251 1.5415 18.9584 3.47484 18.9584 7.99984V12.9998C18.9584 17.5248 17.0251 19.4582 12.5001 19.4582ZM7.50008 2.7915C3.65841 2.7915 2.29175 4.15817 2.29175 7.99984V12.9998C2.29175 16.8415 3.65841 18.2082 7.50008 18.2082H12.5001C16.3417 18.2082 17.7084 16.8415 17.7084 12.9998V7.99984C17.7084 4.15817 16.3417 2.7915 12.5001 2.7915H7.50008Z" fill="#9C9CA4"/>
<path d="M5.00011 16.1249C4.84178 16.1249 4.68345 16.0665 4.55845 15.9415C4.31678 15.6999 4.31678 15.2999 4.55845 15.0582L14.5584 5.0582C14.8001 4.81654 15.2001 4.81654 15.4418 5.0582C15.6834 5.29987 15.6834 5.69987 15.4418 5.94154L5.44178 15.9415C5.31678 16.0665 5.15845 16.1249 5.00011 16.1249Z" fill="#9C9CA4"/>
<path d="M15.0001 9.45833C14.6584 9.45833 14.3751 9.175 14.3751 8.83333V6.125H11.6667C11.3251 6.125 11.0417 5.84167 11.0417 5.5C11.0417 5.15833 11.3251 4.875 11.6667 4.875H15.0001C15.3417 4.875 15.6251 5.15833 15.6251 5.5V8.83333C15.6251 9.175 15.3417 9.45833 15.0001 9.45833Z" fill="#9C9CA4"/>
<path d="M8.33333 16.1248H5C4.65833 16.1248 4.375 15.8415 4.375 15.4998V12.1665C4.375 11.8248 4.65833 11.5415 5 11.5415C5.34167 11.5415 5.625 11.8248 5.625 12.1665V14.8748H8.33333C8.675 14.8748 8.95833 15.1582 8.95833 15.4998C8.95833 15.8415 8.675 16.1248 8.33333 16.1248Z" fill="#9C9CA4"/>
</svg>
